<?xml version="1.0" encoding="UTF-8"?>
<svg id="Layer_1" data-name="Layer 1" xmlns="http://www.w3.org/2000/svg" viewBox="0 0 635.83 361.49">
  <rect x=".41" y="-.06" width="636.04" height="361.69" style="fill: #581c1c;"/>
  <g>
    <rect x="52.75" y="133.04" width="23.62" height="113.2" style="fill: #491c16;"/>
    <path d="M73.92,135.48v108.31h-18.73v-108.31h18.73M78.81,130.59h-28.51v118.09h28.51v-118.09h0Z" style="fill: #491c16;"/>
  </g>
  <g>
    <polygon points="471.5 246.26 471.5 43.3 503.11 43.3 539.71 139.37 512.4 139.37 497.06 99.09 497.06 246.26 471.5 246.26" style="fill: #491c16;"/>
    <path d="M501.42,45.75l34.74,91.18h-22.07l-19.48-51.12v158.01h-20.67V45.75h27.48M504.79,40.86h-35.74v207.84h30.45V112.37l10.02,26.29,1.2,3.15h32.53l-2.53-6.63-34.74-91.18-1.2-3.15h0Z" style="fill: #491c16;"/>
  </g>
  <g>
    <polygon points="553.55 246 553.55 98.83 538.2 139.11 510.9 139.11 547.5 43.04 579.11 43.04 579.11 246 553.55 246" style="fill: #c19d5c;"/>
    <path d="M576.66,45.49v198.06h-20.67V85.55l-19.48,51.12h-22.07l34.74-91.18h27.48M581.55,40.6h-35.74l-1.2,3.15-34.74,91.18-2.53,6.63h32.53l1.2-3.15,10.02-26.29v136.33h30.45V40.6h0Z" style="fill: #c19d5c;"/>
  </g>
  <g>
    <rect x="52.8" y="222.35" width="113.2" height="23.62" style="fill: #c09c5c;"/>
    <path d="M163.56,224.79v18.73H55.24v-18.73h108.31M168.45,219.9H50.35v28.51h118.09v-28.51h0Z" style="fill: #c19d5c;"/>
  </g>
  <g>
    <polygon points="52.8 156.66 52.8 43.45 55.24 43.4 166 43.4 166 67.02 76.42 67.02 76.42 133.04 166 133.04 166 156.66 52.8 156.66" style="fill: #c19d5c;"/>
    <path d="M163.56,45.85v18.73h-89.59v70.91h89.59v18.73H55.24V45.85h108.31M168.45,40.96H50.35v118.14h118.09v-28.51h-89.59v-61.13h89.59v-28.51h0Z" style="fill: #c19d5c;"/>
  </g>
  <g>
    <path d="M422.7,89.78c-14.12-13.7-32.71-21.25-52.36-21.25-13.68,0-27.09,3.72-38.77,10.77l-1.9,1.15-14.97-20.09,2.24-1.41c15.43-9.69,33.23-14.81,51.48-14.81,26.91,0,52.84,11.34,71.14,31.11l1.75,1.89-17.04,14.17-1.58-1.53Z" style="fill: #c19d5c;"/>
    <path d="M368.42,46.58c27.41,0,52.09,11.68,69.35,30.32l-13.37,11.11c-13.98-13.57-33.04-21.94-54.07-21.94-14.65,0-28.34,4.07-40.03,11.12l-12.06-16.19c14.54-9.13,31.74-14.43,50.18-14.43M368.42,41.7c-18.71,0-36.96,5.25-52.78,15.18l-4.48,2.82,3.16,4.25,12.06,16.19,2.65,3.56,3.8-2.29c11.3-6.82,24.27-10.42,37.5-10.42,19.01,0,37,7.3,50.66,20.56l3.15,3.06,3.38-2.81,13.37-11.11,3.97-3.3-3.51-3.78c-9.22-9.95-20.14-17.79-32.46-23.29-12.77-5.7-26.39-8.6-40.47-8.6h0Z" style="fill: #c19d5c;"/>
  </g>
  <g>
    <path d="M364.09,248.95c-13.38,0-26.36-2.69-38.59-8l-.71-.31-26.2-42.61,4.02-2.77c14.38,18.63,36.09,29.31,59.56,29.31,17.15,0,33.92-5.92,47.22-16.68,12.31-9.95,21.23-23.64,25.35-38.81h-35.42v-23.62h61.52l.1,2.34c.05,1.22.11,2.68.11,4.19,0,53.47-43.5,96.96-96.96,96.96Z" style="fill: #c19d5c;"/>
    <path d="M458.5,147.91c.06,1.36.1,2.72.1,4.09,0,52.2-42.32,94.52-94.52,94.52-13.37,0-26.08-2.79-37.61-7.8l-25.79-41.96c14.2,18.4,36.46,30.26,61.49,30.26,36.95,0,67.84-25.81,75.7-60.38h-36.11v-18.73h56.74M463.19,143.02h-66.31v28.51h34.6c-4.31,13.44-12.55,25.51-23.62,34.46-12.87,10.41-29.1,16.14-45.69,16.14-22.71,0-43.71-10.34-57.62-28.36l-8.04,5.55,25.79,41.96.81,1.31,1.41.61c12.53,5.44,25.84,8.2,39.56,8.2,26.55,0,51.52-10.34,70.29-29.12,18.78-18.78,29.12-43.74,29.12-70.29,0-1.56-.05-3.04-.11-4.29l-.2-4.68h0Z" style="fill: #c19d5c;"/>
  </g>
  <g>
    <rect x="190.69" y="151.04" width="23.62" height="94.97" style="fill: #c19d5c;"/>
    <path d="M211.86,153.48v90.08h-18.73v-90.08h18.73M216.75,148.59h-28.51v99.86h28.51v-99.86h0Z" style="fill: #c19d5c;"/>
  </g>
  <g>
    <path d="M283.97,246l-44.8-72.66-.03-.75.03-21.1,2.47.03c.12,0,.24,0,.36.02h0c23.34,0,42.3-18.96,42.3-42.27s-18.78-42.03-41.86-42.25h-51.82v-23.62h52.82s.11,0,.11,0h3.68s0,.13,0,.13c16.39.94,31.65,7.87,43.21,19.65,12.14,12.38,18.82,28.75,18.82,46.09,0,28.63-18.58,53.95-45.58,62.67l45.64,74.06h-25.34Z" style="fill: #c19d5c;"/>
    <path d="M243.37,45.84s.08,0,.11,0h1.28v.03c34.38.75,62.03,28.83,62.03,63.39,0,29.31-19.88,53.96-46.89,61.24l45.02,73.05h-19.59l-43.72-70.9-.03-.05.03-18.63c.14,0,.28.02.42.02,24.7,0,44.72-20.02,44.72-44.72s-19.79-44.46-44.28-44.7h-49.4v-18.73h50.2s.08,0,.11,0M243.37,40.96c-.06,0-.13,0-.19,0h-50.13s-4.89,0-4.89,0v28.51h54.27c10.55.11,20.45,4.29,27.88,11.78,7.44,7.5,11.54,17.45,11.54,28.02,0,21.93-17.81,39.77-39.72,39.83-.17-.01-.33-.02-.48-.02l-4.93-.04v4.93s-.04,18.63-.04,18.63v1.44s.78,1.21.78,1.21h0s43.69,70.87,43.69,70.87l1.43,2.32h31.08l-4.59-7.45-41.74-67.74c26.41-9.88,44.35-35.33,44.35-63.98,0-17.98-6.93-34.96-19.52-47.8-11.44-11.67-26.39-18.75-42.51-20.21v-.27l-4.89-.03h-1.21c-.06,0-.12,0-.18,0h0Z" style="fill: #c19d5c;"/>
  </g>
  <text transform="translate(52.22 319.28)" style="fill: #ead8b8; font-family: CalSans-Regular, &apos;Cal Sans&apos;; font-size: 40.86px;"><tspan x="0" y="0">Ass</tspan><tspan x="62.11" y="0" style="letter-spacing: -.01em;">e</tspan><tspan x="84.87" y="0">ssoria &amp;</tspan><tspan x="224.71" y="0" style="letter-spacing: -.02em;"> </tspan><tspan x="230.43" y="0" style="letter-spacing: 0em;">G</tspan><tspan x="260.75" y="0" style="letter-spacing: -.01em;">e</tspan><tspan x="283.51" y="0" style="letter-spacing: 0em;">s</tspan><tspan x="300.84" y="0" style="letter-spacing: -.01em;">t</tspan><tspan x="313.67" y="0">ã</tspan><tspan x="338.84" y="0" style="letter-spacing: 0em;">o </tspan><tspan x="369.08" y="0">d</tspan><tspan x="394.25" y="0" style="letter-spacing: 0em;">e </tspan><tspan x="423.59" y="0" style="letter-spacing: 0em;">ob</tspan><tspan x="473.03" y="0" style="letter-spacing: -.02em;">r</tspan><tspan x="485.78" y="0">as</tspan></text>
</svg>