<?xml version="1.0" encoding="UTF-8"?>
<svg id="Layer_1" data-name="Layer 1" xmlns="http://www.w3.org/2000/svg" viewBox="0 0 830.09 361.49">
  <g>
    <polygon points="717.41 143.12 750.45 56.39 756.93 56.39 771.44 56.39 776.59 56.39 776.59 244.79 756.93 244.79 756.93 94.49 738.4 143.12 717.41 143.12" style="fill: #581c1c;"/>
    <rect x="318.5" y="226.7" width="103.03" height="17.81" style="fill: #581c1c;"/>
    <polygon points="421.52 74.3 421.52 56.49 318.5 56.49 318.5 56.54 318.5 74.3 318.5 141.75 318.5 159.56 336.31 159.56 421.52 159.56 421.52 141.75 336.31 141.75 336.31 74.3 421.52 74.3" style="fill: #581c1c;"/>
    <path d="M619.85,74.1c20,0,38.13,7.96,51.43,20.87l12.72-10.57c-16.42-17.73-39.89-28.84-65.96-28.84-17.54,0-33.89,5.04-47.73,13.73l11.47,15.4c11.12-6.71,24.14-10.58,38.08-10.58Z" style="fill: #581c1c;"/>
    <path d="M703.71,151.92h-53.97v17.81h34.35c-7.47,32.88-36.86,57.43-72.01,57.43-23.82,0-44.98-11.28-58.49-28.78l24.53,39.91c10.97,4.76,23.06,7.42,35.78,7.42,49.65,0,89.9-40.25,89.9-89.9,0-1.3-.04-2.6-.1-3.89Z" style="fill: #581c1c;"/>
    <rect x="454.57" y="158.87" width="17.81" height="85.68" style="fill: #581c1c;"/>
    <path d="M562.69,116.81c0-32.87-26.3-59.59-59-60.3v-.03h-1.22s-.07,0-.11,0-.07,0-.11,0h-47.75v17.81h46.99c23.3.22,42.12,19.16,42.12,42.51s-19.04,42.53-42.53,42.53c-.13,0-.26-.02-.4-.02v17.77s0,0,0,0h0s41.58,67.44,41.58,67.44h18.64l-42.82-69.48c25.69-6.92,44.6-30.37,44.6-58.25Z" style="fill: #581c1c;"/>
  </g>
  <g>
    <path d="M50.33,314.34l14.15-34.64h5.99l14.1,34.64h-7.52l-2.38-6.58h-14.45l-2.38,6.58h-7.52ZM66.21,292.32l-3.71,9.45h9.9l-3.71-9.45c-.5-1.32-.91-2.64-1.24-3.96-.33,1.42-.74,2.74-1.24,3.96Z" style="fill: #c19d5c;"/>
    <path d="M96.9,314.98c-2.74,0-5.25-.59-7.55-1.76-2.29-1.17-4.2-3.08-5.72-5.72l5.99-3.81c.89,1.78,2.01,3.08,3.37,3.88,1.35.81,2.79,1.21,4.31,1.21,1.62,0,2.89-.36,3.81-1.09.92-.72,1.39-1.68,1.39-2.87s-.36-2.08-1.09-2.77c-.73-.69-1.69-1.25-2.9-1.68-1.21-.43-2.52-.82-3.93-1.19-2.67-.69-4.8-1.84-6.38-3.44-1.58-1.6-2.38-3.7-2.38-6.31,0-2.08.51-3.89,1.53-5.44,1.02-1.55,2.45-2.75,4.28-3.61,1.83-.86,3.97-1.29,6.41-1.29,2.7,0,4.96.56,6.78,1.68,1.81,1.12,3.37,2.71,4.65,4.75l-5.94,3.66c-.83-1.35-1.68-2.34-2.57-2.97-.89-.63-1.98-.94-3.27-.94-1.39,0-2.53.35-3.44,1.04-.91.69-1.36,1.62-1.36,2.77,0,1.29.54,2.22,1.61,2.8,1.07.58,2.37,1.1,3.88,1.56,1.02.33,2.17.72,3.44,1.16,1.27.45,2.5,1.06,3.69,1.83,1.19.78,2.16,1.81,2.92,3.09.76,1.29,1.14,2.92,1.14,4.9,0,2.08-.51,3.91-1.53,5.49-1.02,1.58-2.47,2.82-4.35,3.71-1.88.89-4.14,1.34-6.78,1.34Z" style="fill: #c19d5c;"/>
    <path d="M123.92,314.98c-2.74,0-5.25-.59-7.55-1.76-2.29-1.17-4.2-3.08-5.72-5.72l5.99-3.81c.89,1.78,2.01,3.08,3.37,3.88,1.35.81,2.79,1.21,4.31,1.21,1.62,0,2.89-.36,3.81-1.09.92-.72,1.39-1.68,1.39-2.87s-.36-2.08-1.09-2.77c-.73-.69-1.69-1.25-2.9-1.68-1.21-.43-2.52-.82-3.93-1.19-2.67-.69-4.8-1.84-6.38-3.44-1.58-1.6-2.38-3.7-2.38-6.31,0-2.08.51-3.89,1.53-5.44,1.02-1.55,2.45-2.75,4.28-3.61,1.83-.86,3.97-1.29,6.41-1.29,2.7,0,4.96.56,6.78,1.68,1.81,1.12,3.37,2.71,4.65,4.75l-5.94,3.66c-.83-1.35-1.68-2.34-2.57-2.97-.89-.63-1.98-.94-3.27-.94-1.39,0-2.53.35-3.44,1.04-.91.69-1.36,1.62-1.36,2.77,0,1.29.54,2.22,1.61,2.8,1.07.58,2.37,1.1,3.88,1.56,1.02.33,2.17.72,3.44,1.16,1.27.45,2.5,1.06,3.69,1.83,1.19.78,2.16,1.81,2.92,3.09.76,1.29,1.14,2.92,1.14,4.9,0,2.08-.51,3.91-1.53,5.49-1.02,1.58-2.47,2.82-4.35,3.71-1.88.89-4.14,1.34-6.78,1.34Z" style="fill: #c19d5c;"/>
    <path d="M140.15,314.34v-34.64h20.29v6.24h-13.36v7.77h13.11v6.04h-13.11v8.36h13.46v6.24h-20.39Z" style="fill: #c19d5c;"/>
    <path d="M175.24,314.98c-2.74,0-5.25-.59-7.55-1.76-2.29-1.17-4.2-3.08-5.72-5.72l5.99-3.81c.89,1.78,2.01,3.08,3.37,3.88,1.35.81,2.79,1.21,4.31,1.21,1.62,0,2.89-.36,3.81-1.09.92-.72,1.39-1.68,1.39-2.87s-.36-2.08-1.09-2.77c-.73-.69-1.69-1.25-2.9-1.68-1.21-.43-2.52-.82-3.93-1.19-2.67-.69-4.8-1.84-6.38-3.44-1.58-1.6-2.38-3.7-2.38-6.31,0-2.08.51-3.89,1.53-5.44,1.02-1.55,2.45-2.75,4.28-3.61,1.83-.86,3.97-1.29,6.41-1.29,2.7,0,4.96.56,6.78,1.68,1.81,1.12,3.37,2.71,4.65,4.75l-5.94,3.66c-.83-1.35-1.68-2.34-2.57-2.97-.89-.63-1.98-.94-3.27-.94-1.39,0-2.53.35-3.44,1.04-.91.69-1.36,1.62-1.36,2.77,0,1.29.54,2.22,1.61,2.8,1.07.58,2.37,1.1,3.88,1.56,1.02.33,2.17.72,3.44,1.16,1.27.45,2.5,1.06,3.69,1.83,1.19.78,2.16,1.81,2.92,3.09.76,1.29,1.14,2.92,1.14,4.9,0,2.08-.51,3.91-1.53,5.49-1.02,1.58-2.47,2.82-4.35,3.71-1.88.89-4.14,1.34-6.78,1.34Z" style="fill: #c19d5c;"/>
    <path d="M202.26,314.98c-2.74,0-5.25-.59-7.55-1.76-2.29-1.17-4.2-3.08-5.72-5.72l5.99-3.81c.89,1.78,2.01,3.08,3.37,3.88,1.35.81,2.79,1.21,4.31,1.21,1.62,0,2.89-.36,3.81-1.09.92-.72,1.39-1.68,1.39-2.87s-.36-2.08-1.09-2.77c-.73-.69-1.69-1.25-2.9-1.68-1.21-.43-2.52-.82-3.93-1.19-2.67-.69-4.8-1.84-6.38-3.44-1.58-1.6-2.38-3.7-2.38-6.31,0-2.08.51-3.89,1.53-5.44,1.02-1.55,2.45-2.75,4.28-3.61,1.83-.86,3.97-1.29,6.41-1.29,2.7,0,4.96.56,6.78,1.68,1.81,1.12,3.37,2.71,4.65,4.75l-5.94,3.66c-.83-1.35-1.68-2.34-2.57-2.97-.89-.63-1.98-.94-3.27-.94-1.39,0-2.53.35-3.44,1.04-.91.69-1.36,1.62-1.36,2.77,0,1.29.54,2.22,1.61,2.8,1.07.58,2.37,1.1,3.88,1.56,1.02.33,2.17.72,3.44,1.16,1.27.45,2.5,1.06,3.69,1.83,1.19.78,2.16,1.81,2.92,3.09.76,1.29,1.14,2.92,1.14,4.9,0,2.08-.51,3.91-1.53,5.49-1.02,1.58-2.47,2.82-4.35,3.71-1.88.89-4.14,1.34-6.78,1.34Z" style="fill: #c19d5c;"/>
    <path d="M235.07,314.98c-2.57,0-4.96-.46-7.15-1.39-2.19-.92-4.11-2.21-5.74-3.86-1.63-1.65-2.9-3.55-3.81-5.72-.91-2.16-1.36-4.48-1.36-6.95s.45-4.8,1.36-6.98c.91-2.18,2.18-4.09,3.81-5.74s3.55-2.95,5.74-3.89c2.19-.94,4.58-1.41,7.15-1.41s4.95.47,7.13,1.41c2.18.94,4.07,2.24,5.69,3.89,1.62,1.65,2.88,3.56,3.79,5.74.91,2.18,1.36,4.5,1.36,6.98s-.45,4.79-1.36,6.95c-.91,2.16-2.17,4.07-3.79,5.72-1.62,1.65-3.51,2.94-5.69,3.86-2.18.92-4.55,1.39-7.13,1.39ZM235.07,308.55c2.24,0,4.16-.52,5.77-1.56,1.6-1.04,2.84-2.43,3.71-4.18.87-1.75,1.31-3.66,1.31-5.74s-.44-4.04-1.31-5.79c-.87-1.75-2.11-3.15-3.71-4.21-1.6-1.06-3.52-1.58-5.77-1.58s-4.18.53-5.81,1.58c-1.63,1.06-2.89,2.46-3.76,4.21-.88,1.75-1.31,3.68-1.31,5.79s.44,3.99,1.31,5.74c.87,1.75,2.13,3.14,3.76,4.18,1.63,1.04,3.57,1.56,5.81,1.56Z" style="fill: #c19d5c;"/>
    <path d="M256.74,314.34v-34.64h11.18c3.89,0,6.95.9,9.18,2.7,2.23,1.8,3.34,4.4,3.34,7.79,0,2.74-.73,4.95-2.2,6.63-1.47,1.68-3.51,2.8-6.11,3.37l9.7,14.15h-8.17l-7.37-10.99c-.46-.69-.91-1.53-1.34-2.52h-1.29v13.51h-6.93ZM263.67,294.59h3.86c1.88,0,3.33-.37,4.35-1.11,1.02-.74,1.53-1.82,1.53-3.24s-.51-2.45-1.53-3.19c-1.02-.74-2.47-1.11-4.35-1.11h-3.86v8.66Z" style="fill: #c19d5c;"/>
    <path d="M284.01,314.34v-34.64h6.93v34.64h-6.93Z" style="fill: #c19d5c;"/>
    <path d="M292.47,314.34l14.15-34.64h5.99l14.1,34.64h-7.52l-2.38-6.58h-14.45l-2.38,6.58h-7.52ZM308.36,292.32l-3.71,9.45h9.9l-3.71-9.45c-.5-1.32-.91-2.64-1.24-3.96-.33,1.42-.74,2.74-1.24,3.96Z" style="fill: #c19d5c;"/>
    <path d="M346.51,314.98c-2.38,0-4.4-.47-6.06-1.41-1.67-.94-2.93-2.19-3.79-3.76-.86-1.57-1.29-3.26-1.29-5.07,0-2.24.57-4.15,1.71-5.72,1.14-1.57,2.48-2.81,4.03-3.74l.74-.45-.69-.84c-.89-1.06-1.56-2.08-2-3.07-.45-.99-.67-2.16-.67-3.51,0-1.68.43-3.15,1.29-4.4.86-1.25,2-2.23,3.44-2.92,1.44-.69,3.01-1.04,4.73-1.04,1.62,0,3.13.35,4.55,1.04,1.42.69,2.57,1.67,3.46,2.92.89,1.25,1.34,2.72,1.34,4.4,0,1.35-.26,2.62-.77,3.79-.51,1.17-1.69,2.37-3.54,3.59l-1.98,1.34,5.54,6.83,4.65-3.81,3.61,4.6-4.6,3.66,5.59,6.93h-7.62l-2.33-3.22-1.24,1.09c-.43.36-1.06.77-1.91,1.21-.84.45-1.8.82-2.87,1.11-1.07.3-2.19.45-3.34.45ZM342.16,304.39c0,1.12.38,2.15,1.14,3.09.76.94,1.8,1.41,3.12,1.41.99,0,1.83-.15,2.52-.45s1.5-.79,2.42-1.49l.3-.25-5.89-7.18-1.19.79c-.73.5-1.31,1.07-1.76,1.73-.45.66-.67,1.44-.67,2.33ZM346.32,290.34l1.09,1.34.54-.35c1.22-.69,2.04-1.34,2.45-1.93.41-.59.62-1.27.62-2.03,0-.86-.28-1.55-.84-2.08-.56-.53-1.24-.79-2.03-.79-.89,0-1.63.26-2.23.79-.59.53-.89,1.22-.89,2.08,0,.46.08.91.25,1.34.16.43.51.97,1.04,1.63Z" style="fill: #c19d5c;"/>
    <path d="M391.3,314.98c-2.57,0-4.96-.46-7.15-1.39-2.19-.92-4.11-2.21-5.74-3.86-1.63-1.65-2.9-3.55-3.81-5.72-.91-2.16-1.36-4.48-1.36-6.95s.45-4.8,1.36-6.98c.91-2.18,2.18-4.09,3.81-5.74s3.55-2.95,5.74-3.89c2.19-.94,4.58-1.41,7.15-1.41,2.94,0,5.44.47,7.5,1.41,2.06.94,3.8,2.29,5.22,4.03l-4.95,4.26c-.92-1.02-2.05-1.82-3.37-2.4-1.32-.58-2.79-.87-4.4-.87-2.21,0-4.13.53-5.77,1.58-1.63,1.06-2.9,2.46-3.79,4.21-.89,1.75-1.34,3.68-1.34,5.79s.45,4.04,1.34,5.79c.89,1.75,2.15,3.15,3.79,4.21,1.63,1.06,3.55,1.58,5.77,1.58,2.74,0,4.95-.65,6.63-1.95s2.72-3.31,3.12-6.01l-11.38.1v-6.24h18.06c.07.53.12,1.16.17,1.91.05.74.07,1.39.07,1.95,0,3.2-.67,6.05-2,8.54-1.34,2.49-3.25,4.45-5.74,5.89-2.49,1.44-5.47,2.15-8.93,2.15Z" style="fill: #c19d5c;"/>
    <path d="M411.69,314.34v-34.64h20.29v6.24h-13.36v7.77h13.11v6.04h-13.11v8.36h13.46v6.24h-20.39Z" style="fill: #c19d5c;"/>
    <path d="M446.78,314.98c-2.74,0-5.25-.59-7.55-1.76-2.29-1.17-4.2-3.08-5.72-5.72l5.99-3.81c.89,1.78,2.01,3.08,3.37,3.88,1.35.81,2.79,1.21,4.31,1.21,1.62,0,2.89-.36,3.81-1.09.92-.72,1.39-1.68,1.39-2.87s-.36-2.08-1.09-2.77c-.73-.69-1.69-1.25-2.9-1.68-1.21-.43-2.52-.82-3.93-1.19-2.67-.69-4.8-1.84-6.38-3.44-1.58-1.6-2.38-3.7-2.38-6.31,0-2.08.51-3.89,1.53-5.44,1.02-1.55,2.45-2.75,4.28-3.61,1.83-.86,3.97-1.29,6.41-1.29,2.7,0,4.96.56,6.78,1.68,1.81,1.12,3.37,2.71,4.65,4.75l-5.94,3.66c-.83-1.35-1.68-2.34-2.57-2.97-.89-.63-1.98-.94-3.27-.94-1.39,0-2.53.35-3.44,1.04-.91.69-1.36,1.62-1.36,2.77,0,1.29.54,2.22,1.61,2.8,1.07.58,2.37,1.1,3.88,1.56,1.02.33,2.17.72,3.44,1.16,1.27.45,2.5,1.06,3.69,1.83,1.19.78,2.16,1.81,2.92,3.09.76,1.29,1.14,2.92,1.14,4.9,0,2.08-.51,3.91-1.53,5.49-1.02,1.58-2.47,2.82-4.35,3.71-1.88.89-4.14,1.34-6.78,1.34Z" style="fill: #c19d5c;"/>
    <path d="M471.17,314.34v-28.41h-9.9v-6.24h26.72v6.24h-9.9v28.41h-6.93Z" style="fill: #c19d5c;"/>
    <path d="M482.75,314.34l14.15-34.64h5.99l14.1,34.64h-7.52l-2.38-6.58h-14.45l-2.38,6.58h-7.52ZM503.88,277.87c-.99,0-1.82-.16-2.5-.47-.68-.31-1.26-.68-1.76-1.11-.49-.43-.99-.8-1.48-1.11-.5-.31-1.07-.47-1.73-.47-.89,0-1.49.28-1.81.84-.31.56-.47,1.11-.47,1.63h-4.26c0-1.55.32-2.84.96-3.86.64-1.02,1.47-1.79,2.47-2.3,1.01-.51,2.05-.77,3.14-.77.99,0,1.84.16,2.55.47.71.31,1.34.67,1.88,1.06.54.4,1.05.75,1.51,1.06.46.31.94.47,1.44.47.76,0,1.24-.3,1.44-.92.2-.61.3-1.15.3-1.61h4.31c0,2.11-.5,3.82-1.48,5.12-.99,1.3-2.49,1.96-4.5,1.96ZM498.64,292.32l-3.71,9.45h9.9l-3.71-9.45c-.5-1.32-.91-2.64-1.24-3.96-.33,1.42-.74,2.74-1.24,3.96Z" style="fill: #c19d5c;"/>
    <path d="M532.89,314.98c-2.57,0-4.96-.46-7.15-1.39-2.19-.92-4.11-2.21-5.74-3.86-1.63-1.65-2.9-3.55-3.81-5.72-.91-2.16-1.36-4.48-1.36-6.95s.45-4.8,1.36-6.98c.91-2.18,2.18-4.09,3.81-5.74s3.55-2.95,5.74-3.89c2.19-.94,4.58-1.41,7.15-1.41s4.95.47,7.13,1.41c2.18.94,4.07,2.24,5.69,3.89,1.62,1.65,2.88,3.56,3.79,5.74.91,2.18,1.36,4.5,1.36,6.98s-.45,4.79-1.36,6.95c-.91,2.16-2.17,4.07-3.79,5.72-1.62,1.65-3.51,2.94-5.69,3.86-2.18.92-4.55,1.39-7.13,1.39ZM532.89,308.55c2.24,0,4.16-.52,5.77-1.56,1.6-1.04,2.84-2.43,3.71-4.18.87-1.75,1.31-3.66,1.31-5.74s-.44-4.04-1.31-5.79c-.87-1.75-2.11-3.15-3.71-4.21-1.6-1.06-3.52-1.58-5.77-1.58s-4.18.53-5.81,1.58c-1.63,1.06-2.89,2.46-3.76,4.21-.88,1.75-1.31,3.68-1.31,5.79s.44,3.99,1.31,5.74c.87,1.75,2.13,3.14,3.76,4.18,1.63,1.04,3.57,1.56,5.81,1.56Z" style="fill: #c19d5c;"/>
    <path d="M561.49,314.34v-34.64h12.37c3.99,0,7.3.76,9.92,2.28,2.62,1.52,4.59,3.58,5.89,6.19,1.3,2.61,1.96,5.58,1.96,8.91s-.65,6.25-1.96,8.86c-1.3,2.61-3.27,4.66-5.89,6.16-2.62,1.5-5.93,2.25-9.92,2.25h-12.37ZM573.02,285.93h-4.6v22.17h4.6c2.74,0,4.95-.49,6.63-1.46,1.68-.97,2.9-2.29,3.66-3.96.76-1.67,1.14-3.54,1.14-5.62s-.38-4-1.14-5.67c-.76-1.67-1.98-2.99-3.66-3.98-1.68-.99-3.89-1.48-6.63-1.48Z" style="fill: #c19d5c;"/>
    <path d="M595.34,314.34v-34.64h20.29v6.24h-13.36v7.77h13.11v6.04h-13.11v8.36h13.46v6.24h-20.39Z" style="fill: #c19d5c;"/>
    <path d="M643.89,314.98c-2.57,0-4.96-.46-7.15-1.39-2.19-.92-4.11-2.21-5.74-3.86-1.63-1.65-2.9-3.55-3.81-5.72-.91-2.16-1.36-4.48-1.36-6.95s.45-4.8,1.36-6.98c.91-2.18,2.18-4.09,3.81-5.74s3.55-2.95,5.74-3.89c2.19-.94,4.58-1.41,7.15-1.41s4.95.47,7.13,1.41c2.18.94,4.07,2.24,5.69,3.89,1.62,1.65,2.88,3.56,3.79,5.74.91,2.18,1.36,4.5,1.36,6.98s-.45,4.79-1.36,6.95c-.91,2.16-2.17,4.07-3.79,5.72-1.62,1.65-3.51,2.94-5.69,3.86-2.18.92-4.55,1.39-7.13,1.39ZM643.89,308.55c2.24,0,4.16-.52,5.77-1.56,1.6-1.04,2.84-2.43,3.71-4.18.87-1.75,1.31-3.66,1.31-5.74s-.44-4.04-1.31-5.79c-.87-1.75-2.11-3.15-3.71-4.21-1.6-1.06-3.52-1.58-5.77-1.58s-4.18.53-5.81,1.58c-1.63,1.06-2.89,2.46-3.76,4.21-.88,1.75-1.31,3.68-1.31,5.79s.44,3.99,1.31,5.74c.87,1.75,2.13,3.14,3.76,4.18,1.63,1.04,3.57,1.56,5.81,1.56Z" style="fill: #c19d5c;"/>
    <path d="M665.56,314.34v-34.64h11.68c3.76,0,6.63.84,8.61,2.52s2.97,3.88,2.97,6.58c0,1.65-.4,3.08-1.21,4.28-.81,1.2-2.27,2.2-4.38,2.99,2.84.66,4.8,1.74,5.89,3.24,1.09,1.5,1.63,3.32,1.63,5.47,0,2.9-1.11,5.22-3.32,6.95-2.21,1.73-5.2,2.6-8.96,2.6h-12.92ZM672.49,294h4.11c1.88,0,3.22-.34,4.01-1.01.79-.68,1.19-1.71,1.19-3.09,0-1.19-.4-2.15-1.19-2.89s-2.13-1.11-4.01-1.11h-4.11v8.12ZM672.49,308.1h5.34c1.88,0,3.33-.35,4.36-1.06,1.02-.71,1.53-1.82,1.53-3.34,0-1.25-.51-2.24-1.53-2.97-1.02-.73-2.47-1.09-4.36-1.09h-5.34v8.46Z" style="fill: #c19d5c;"/>
    <path d="M693.97,314.34v-34.64h11.18c3.89,0,6.95.9,9.18,2.7,2.23,1.8,3.34,4.4,3.34,7.79,0,2.74-.73,4.95-2.2,6.63s-3.51,2.8-6.11,3.37l9.7,14.15h-8.17l-7.37-10.99c-.46-.69-.91-1.53-1.34-2.52h-1.29v13.51h-6.93ZM700.89,294.59h3.86c1.88,0,3.33-.37,4.36-1.11,1.02-.74,1.53-1.82,1.53-3.24s-.51-2.45-1.53-3.19c-1.02-.74-2.47-1.11-4.36-1.11h-3.86v8.66Z" style="fill: #c19d5c;"/>
    <path d="M719.4,314.34l14.15-34.64h5.99l14.1,34.64h-7.52l-2.38-6.58h-14.45l-2.38,6.58h-7.52ZM735.29,292.32l-3.71,9.45h9.9l-3.71-9.45c-.5-1.32-.91-2.64-1.24-3.96-.33,1.42-.74,2.74-1.24,3.96Z" style="fill: #c19d5c;"/>
    <path d="M765.97,314.98c-2.74,0-5.25-.59-7.55-1.76-2.29-1.17-4.2-3.08-5.72-5.72l5.99-3.81c.89,1.78,2.01,3.08,3.36,3.88s2.79,1.21,4.31,1.21c1.62,0,2.89-.36,3.81-1.09.92-.72,1.39-1.68,1.39-2.87s-.36-2.08-1.09-2.77c-.73-.69-1.69-1.25-2.89-1.68-1.21-.43-2.52-.82-3.93-1.19-2.67-.69-4.8-1.84-6.38-3.44-1.58-1.6-2.38-3.7-2.38-6.31,0-2.08.51-3.89,1.53-5.44s2.45-2.75,4.28-3.61c1.83-.86,3.97-1.29,6.41-1.29,2.71,0,4.97.56,6.78,1.68,1.81,1.12,3.37,2.71,4.65,4.75l-5.94,3.66c-.82-1.35-1.68-2.34-2.57-2.97-.89-.63-1.98-.94-3.27-.94-1.39,0-2.53.35-3.44,1.04-.91.69-1.36,1.62-1.36,2.77,0,1.29.54,2.22,1.61,2.8s2.37,1.1,3.88,1.56c1.02.33,2.17.72,3.44,1.16,1.27.45,2.5,1.06,3.69,1.83,1.19.78,2.16,1.81,2.92,3.09s1.14,2.92,1.14,4.9c0,2.08-.51,3.91-1.53,5.49-1.02,1.58-2.47,2.82-4.36,3.71-1.88.89-4.14,1.34-6.78,1.34Z" style="fill: #c19d5c;"/>
  </g>
  <g>
    <path d="M243.22,54.97H72.98c-12.82,0-23.24,10.43-23.24,23.24v143.57c0,12.82,10.43,23.24,23.24,23.24h170.24c12.82,0,23.24-10.43,23.24-23.24V78.21c0-12.82-10.43-23.24-23.24-23.24ZM122.47,102.49h22.42c-2.62,12.25-13.92,21.48-27.43,21.48-.84,0-1.71-.04-2.59-.12-.7-.06-1.33-.09-1.95-.09h-42.9c-3.95,0-7.17-2.8-7.17-6.24v-41.05c0-3.44,3.22-6.24,7.17-6.24h44.45c.42,0,.84-.01,1.29-.04.63-.04,1.18-.06,1.69-.06,12.83,0,23.66,8.34,26.96,19.68h-21.96c-3.5,0-6.34,2.84-6.34,6.34s2.84,6.34,6.34,6.34ZM116.66,144.52c-3.5,0-6.34,2.84-6.34,6.34v44.23h-47.9v-60.1c2.35.93,4.92,1.45,7.62,1.45h42.9c.23,0,.49.01.81.04,1.25.11,2.5.17,3.72.17l57.57,58.44h-52.02v-44.23c0-3.5-2.84-6.34-6.34-6.34ZM62.42,221.78v-14h47.9v24.56h-37.34c-5.82,0-10.56-4.74-10.56-10.56ZM243.22,232.34h-15.6v-54.52c0-3.5-2.84-6.34-6.34-6.34s-6.34,2.84-6.34,6.34v54.52h-91.93v-24.56h66.77c.45,0,.88-.05,1.3-.13,1.27-.19,2.5-.77,3.49-1.74,2.49-2.46,2.52-6.47.07-8.97l-62.14-63.09c13.35-5.19,23.24-17.06,25.27-31.35h65.28c3.5,0,6.34-2.84,6.34-6.34s-2.84-6.34-6.34-6.34h-65.58c-1.66-8.72-6.26-16.45-12.77-22.16h98.53c1.3,0,2.53.25,3.68.68l-19.48,56.1c-1.15,3.31.6,6.92,3.91,8.07.69.24,1.39.35,2.08.35,2.63,0,5.08-1.64,5.99-4.26l14.38-41.41v134.6c0,5.82-4.74,10.56-10.56,10.56Z" style="fill: #581c1c;"/>
    <path d="M222.95,132.75c-10.18,0-18.46,8.28-18.46,18.46s8.28,18.46,18.46,18.46,18.46-8.28,18.46-18.46-8.28-18.46-18.46-18.46ZM222.95,156.99c-3.19,0-5.78-2.59-5.78-5.78s2.59-5.78,5.78-5.78,5.78,2.59,5.78,5.78-2.59,5.78-5.78,5.78Z" style="fill: #581c1c;"/>
  </g>
</svg>